Coordinates
version=1
nRows=48
nColumns=11
inDegrees=yes

Units are S.I. units (second, meters, Newtons, ...)
If the header above contains a line with 'inDegrees', this indicates whether rotational values are in degrees (yes) or radians (no).

endheader
time	pelvis_tilt	pelvis_tx	pelvis_ty	hip_flexion_l	hip_flexion_r	knee_angle_l	knee_angle_r	ankle_angle_l	ankle_angle_r	lumbar
     20.20000000	    -20.71924262	      0.23876399	      0.90015638	     51.52802196	     51.52802196	    -43.68522401	    -43.68522401	     10.15976326	     10.15976326	    -22.88709781
     20.21000000	    -20.41410488	      0.24215384	      0.90358820	     50.51755906	     50.51755906	    -42.88091327	    -42.88091327	     10.02354461	     10.02354461	    -22.38195422
     20.22000000	    -20.07837383	      0.24564792	      0.90703094	     49.46441666	     49.46441666	    -42.08996602	    -42.08996602	      9.87497795	      9.87497795	    -21.89205984
     20.23000000	    -19.73300698	      0.24904371	      0.91047913	     48.40926506	     48.40926506	    -41.27922008	    -41.27922008	      9.72502431	      9.72502431	    -21.43852501
     20.24000000	    -19.38644276	      0.25251976	      0.91386925	     47.34449582	     47.34449582	    -40.47147546	    -40.47147546	      9.57756492	      9.57756492	    -20.96866663
     20.25000000	    -19.02644242	      0.25597299	      0.91724873	     46.26572695	     46.26572695	    -39.65380341	    -39.65380341	      9.42824825	      9.42824825	    -20.52057272
     20.26000000	    -18.65768508	      0.25942471	      0.92060306	     45.17498988	     45.17498988	    -38.82957310	    -38.82957310	      9.27633939	      9.27633939	    -20.08573094
     20.27000000	    -18.28480226	      0.26286143	      0.92390732	     44.08324471	     44.08324471	    -38.00835233	    -38.00835233	      9.12382324	      9.12382324	    -19.65747441
     20.28000000	    -17.91598899	      0.26627596	      0.92714970	     42.99562006	     42.99562006	    -37.18151547	    -37.18151547	      8.96922303	      8.96922303	    -19.22779957
     20.29000000	    -17.54900861	      0.26965827	      0.93031981	     41.91689021	     41.91689021	    -36.36043072	    -36.36043072	      8.81233431	      8.81233431	    -18.79990429
     20.30000000	    -17.19287693	      0.27300290	      0.93340800	     40.85367327	     40.85367327	    -35.53918786	    -35.53918786	      8.65298229	      8.65298229	    -18.36458167
     20.31000000	    -16.85694602	      0.27630641	      0.93639412	     39.81679509	     39.81679509	    -34.72154476	    -34.72154476	      8.49498345	      8.49498345	    -17.90815700
     20.32000000	    -16.51490456	      0.27957912	      0.93932763	     38.77708576	     38.77708576	    -33.90101651	    -33.90101651	      8.32515629	      8.32515629	    -17.46894616
     20.33000000	    -16.19095331	      0.28280356	      0.94216370	     37.76354335	     37.76354335	    -33.08694946	    -33.08694946	      8.15543728	      8.15543728	    -17.01187134
     20.34000000	    -15.85770294	      0.28600972	      0.94494128	     36.74367188	     36.74367188	    -32.27421010	    -32.27421010	      7.97116804	      7.97116804	    -16.57592692
     20.35000000	    -15.56575936	      0.28914222	      0.94758666	     35.77650097	     35.77650097	    -31.46740717	    -31.46740717	      7.80054163	      7.80054163	    -16.09237809
     20.36000000	    -15.28044960	      0.29223930	      0.95012777	     34.82298980	     34.82298980	    -30.66254303	    -30.66254303	      7.62724914	      7.62724914	    -15.60956106
     20.37000000	    -14.99026629	      0.29530762	      0.95261748	     33.86833165	     33.86833165	    -29.86190314	    -29.86190314	      7.44635997	      7.44635997	    -15.14113239
     20.38000000	    -14.70277869	      0.29833936	      0.95502157	     32.92179395	     32.92179395	    -29.06348068	    -29.06348068	      7.26350699	      7.26350699	    -14.67824659
     20.39000000	    -14.42133604	      0.30132922	      0.95733307	     31.98923786	     31.98923786	    -28.27266520	    -28.27266520	      7.08269403	      7.08269403	    -14.21681733
     20.40000000	    -14.13529342	      0.30428463	      0.95957505	     31.05825833	     31.05825833	    -27.48929458	    -27.48929458	      6.89865692	      6.89865692	    -13.77186838
     20.41000000	    -13.85701411	      0.30719214	      0.96172154	     30.14554008	     30.14554008	    -26.71725234	    -26.71725234	      6.72191079	      6.72191079	    -13.32856879
     20.42000000	    -13.58184893	      0.31003985	      0.96377088	     29.25012699	     29.25012699	    -25.96369379	    -25.96369379	      6.55171127	      6.55171127	    -12.89538059
     20.43000000	    -13.30940139	      0.31283460	      0.96572658	     28.36925157	     28.36925157	    -25.22159644	    -25.22159644	      6.39036580	      6.39036580	    -12.47314997
     20.44000000	    -13.27487054	      0.31542442	      0.96708211	     27.81356781	     27.81356781	    -24.59643599	    -24.59643599	      6.37229996	      6.37229996	    -11.76207065
     20.45000000	    -12.77267599	      0.31823983	      0.96936201	     26.66006913	     26.66006913	    -23.79845744	    -23.79845744	      6.09365634	      6.09365634	    -11.65917232
     20.46000000	    -12.50983931	      0.32082567	      0.97103154	     25.83568292	     25.83568292	    -23.11781547	    -23.11781547	      5.95421125	      5.95421125	    -11.27354724
     20.47000000	    -12.44775908	      0.32320130	      0.97220695	     25.28618013	     25.28618013	    -22.52377156	    -22.52377156	      5.93043173	      5.93043173	    -10.65096687
     20.48000000	    -12.01589525	      0.32575787	      0.97405226	     24.27056576	     24.27056576	    -21.81632547	    -21.81632547	      5.71435134	      5.71435134	    -10.50794532
     20.49000000	    -11.97753775	      0.32796439	      0.97502277	     23.78479947	     23.78479947	    -21.27656840	    -21.27656840	      5.70805957	      5.70805957	     -9.89089424
     20.50000000	    -11.49213486	      0.33040028	      0.97682030	     22.73301551	     22.73301551	    -20.59104585	    -20.59104585	      5.47965336	      5.47965336	     -9.84571906
     20.51000000	    -11.23963625	      0.33261253	      0.97806444	     21.99826910	     21.99826910	    -20.00976516	    -20.00976516	      5.37520847	      5.37520847	     -9.52638671
     20.52000000	    -10.98738014	      0.33474968	      0.97923602	     21.27848390	     21.27848390	    -19.44519903	    -19.44519903	      5.28223592	      5.28223592	     -9.22230776
     20.53000000	    -10.74469622	      0.33681354	      0.98033338	     20.58015994	     20.58015994	    -18.89646896	    -18.89646896	      5.19282462	      5.19282462	     -8.92278957
     20.54000000	    -10.50305025	      0.33880426	      0.98136521	     19.89415322	     19.89415322	    -18.35732876	    -18.35732876	      5.10720271	      5.10720271	     -8.63870969
     20.55000000	    -10.26219204	      0.34072332	      0.98234156	     19.21652624	     19.21652624	    -17.82424252	    -17.82424252	      5.02202679	      5.02202679	     -8.36909742
     20.56000000	    -10.26460248	      0.34243149	      0.98279793	     18.85927136	     18.85927136	    -17.38318323	    -17.38318323	      5.04719579	      5.04719579	     -7.81821554
     20.57000000	     -9.80992472	      0.34431397	      0.98410099	     17.91581729	     17.91581729	    -16.77059220	    -16.77059220	      4.86236339	      4.86236339	     -7.84998154
     20.58000000	     -9.62852963	      0.34599956	      0.98482817	     17.33117893	     17.33117893	    -16.26681018	    -16.26681018	      4.79474861	      4.79474861	     -7.55905058
     20.59000000	     -9.64389131	      0.34746271	      0.98511536	     17.01240097	     17.01240097	    -15.84391792	    -15.84391792	      4.82032309	      4.82032309	     -7.04671281
     20.60000000	     -9.17928180	      0.34909663	      0.98632693	     16.07391236	     16.07391236	    -15.23173805	    -15.23173805	      4.60416676	      4.60416676	     -7.15377436
     20.61000000	     -9.18895241	      0.35042036	      0.98658031	     15.74683636	     15.74683636	    -14.78618439	    -14.78618439	      4.62170404	      4.62170404	     -6.68509020
     20.62000000	     -8.88143366	      0.35185297	      0.98740429	     15.01053419	     15.01053419	    -14.21843425	    -14.21843425	      4.47343371	      4.47343371	     -6.62570084
     20.63000000	     -8.69667746	      0.35316186	      0.98796993	     14.43399316	     14.43399316	    -13.69716788	    -13.69716788	      4.38687157	      4.38687157	     -6.43350023
     20.64000000	     -8.65931123	      0.35431273	      0.98822320	     14.05749246	     14.05749246	    -13.24024425	    -13.24024425	      4.37898360	      4.37898360	     -6.07712175
     20.65000000	     -8.31573064	      0.35558745	      0.98903154	     13.27470748	     13.27470748	    -12.64116008	    -12.64116008	      4.20965103	      4.20965103	     -6.10964201
     20.66000000	     -8.33691187	      0.35659062	      0.98912476	     12.97825740	     12.97825740	    -12.19682367	    -12.19682367	      4.23089633	      4.23089633	     -5.70872779
     20.67000000	     -7.94483460	      0.35771902	      0.98998540	     12.15262615	     12.15262615	    -11.60209251	    -11.60209251	      4.03716521	      4.03716521	     -5.84909221
